<?xml version="1.0" encoding="utf-8"?>
<!-- Generator: Adobe Illustrator 27.7.0, SVG Export Plug-In . SVG Version: 6.00 Build 0)  -->
<svg version="1.1" id="kids-and-baby" xmlns="http://www.w3.org/2000/svg" xmlns:xlink="http://www.w3.org/1999/xlink" x="0px"
	 y="0px" viewBox="0 0 136.1 72" style="enable-background:new 0 0 136.1 72;" xml:space="preserve">
<style type="text/css">
	.st0{fill-rule:evenodd;clip-rule:evenodd;}
</style>
<path class="st0" d="M58,56.2v3.3h8.9V0h-9.3v19.9h-0.2c-1.1-1.6-3.1-3-5.9-3c-6.8,0-9.9,7.7-9.9,21.6c0,13.7,2.4,21.8,9.1,21.8
	c3.7,0,5.2-1.8,7-4l0-0.1H58z M57.6,24.7v27.1c-0.5,0.8-1.4,1.3-2.8,1.3c-2.7,0-3.2-1.9-3.2-14.8c0-13.2,0.7-15,3.4-15
	C56.2,23.4,57.2,24,57.6,24.7z"/>
<path class="st0" d="M110.4,12.5V21c-0.9-0.3-2.2-0.5-2.8-0.5c-0.8,0-2,0.4-2.8,1.1c1.9,2.5,2.7,5.1,2.7,8.6
	c0,7.3-4.6,13.6-11.9,13.6c-1.1,0-2.2-0.1-3.3-0.4c-0.7,0.4-0.9,1.1-0.9,1.9c0,1.9,2.7,2.5,6,3.2c5.5,1.2,12.9,2.8,12.9,11.6
	c0,6-3.7,11.9-14.5,11.9c-10.7,0-13.7-5.4-13.7-8.1c0-4.6,3.6-6.3,7.1-7.7v-0.2c-2.9-0.8-5.5-2.9-5.5-6.4c0-3.9,2.3-6.2,5.3-8
	c-3.9-2.8-4.9-6.9-4.9-11.8c0-6.8,4.3-13.1,11.7-13.1c1.8,0,3.9,0.2,6.2,2C103.6,15.5,106.8,12.9,110.4,12.5z M102.7,61.5
	c0-2.6-6.1-3.6-7-3.7c-1.4,0.2-5.8,1.5-5.8,4.5c0,2.1,1.4,3.3,6.3,3.3C100.3,65.5,102.7,64,102.7,61.5z M92.5,30.4
	c0,5.2,1.1,7.4,3.4,7.4c2.2,0,3.3-2.3,3.3-7.4c0-5.2-1.1-7.5-3.3-7.5C93.6,22.8,92.5,25.1,92.5,30.4z"/>
<path class="st0" d="M136.1,38.5c0,15.9-5.6,21.7-12.8,21.7c-7.2,0-12.8-5.8-12.8-21.7c0-15.9,5.6-21.7,12.8-21.7
	C130.5,16.9,136.1,22.7,136.1,38.5z M126.2,38.5c0-12.8-0.7-14.6-2.9-14.6c-2.2,0-2.9,1.8-2.9,14.6c0,12.8,0.7,14.6,2.9,14.6
	C125.5,53.2,126.2,51.3,126.2,38.5z"/>
<path d="M13.7,17.5h9.3v4h0.2c2.1-2.3,4.9-4.7,8.4-4.7c4.4,0,6.5,3.2,6.5,8.7v34h-9.3V29.1c0-3.2-1-4.2-2.6-4.2
	c-1.3,0-2.5,0.8-3.1,1.6v33.1h-9.3V17.5z"/>
<path d="M0,0v46.2h9.3V0H0z"/>
<path d="M0,49.8v9.7h9.3v-9.7H0z"/>
<path d="M71.6,9.7V0h9.3v9.7H71.6z"/>
<path d="M71.6,59.5v-42h9.3v42H71.6z"/>
</svg>
